<svg width="40" height="40" viewBox="0 0 40 40" fill="none" xmlns="http://www.w3.org/2000/svg">
<path id="Vector" d="M38.5714 0H1.42857C0.638393 0 0 0.8125 0 1.81818V38.1818C0 39.1875 0.638393 40 1.42857 40H38.5714C39.3616 40 40 39.1875 40 38.1818V1.81818C40 0.8125 39.3616 0 38.5714 0ZM34.9643 6.1875L20.8795 20.1364C20.5313 20.483 20.0446 20.483 19.6964 20.1364L5.60714 6.1875C5.55403 6.13533 5.51508 6.06332 5.49574 5.98156C5.4764 5.8998 5.47764 5.81239 5.4993 5.73157C5.52096 5.65076 5.56194 5.5806 5.61651 5.53092C5.67107 5.48124 5.73648 5.45453 5.80357 5.45455H34.7679C34.8349 5.45453 34.9004 5.48124 34.9549 5.53092C35.0095 5.5806 35.0505 5.65076 35.0721 5.73157C35.0938 5.81239 35.095 5.8998 35.0757 5.98156C35.0564 6.06332 35.0174 6.13533 34.9643 6.1875Z" fill="#818289"/>
</svg>
