<svg width="40" height="40" viewBox="0 0 40 40" fill="none" xmlns="http://www.w3.org/2000/svg">
<g id="Frame" clip-path="url(#clip0_21_245)">
<path id="Vector" d="M40 4.7515C38.529 5.53257 36.9283 6.0947 35.2794 6.31363C36.9913 5.06177 38.2732 3.08404 38.8847 0.751503C37.2784 1.92777 35.5186 2.75259 33.6834 3.18937C32.9165 2.18006 31.9888 1.376 30.9583 0.827287C29.9278 0.278575 28.8166 -0.0030283 27.6938 2.45586e-05C23.1511 2.45586e-05 19.4977 4.53257 19.4977 10.0947C19.4977 10.8758 19.5746 11.6568 19.6996 12.4083C12.8975 11.9704 6.83091 7.97043 2.79774 1.84618C2.06285 3.39124 1.67775 5.15047 1.68249 6.94085C1.68249 10.4438 3.12943 13.5326 5.3359 15.3491C4.03559 15.2861 2.76574 14.8462 1.62961 14.0651V14.1894C1.62961 19.0947 4.44658 23.1598 8.20094 24.0947C7.49602 24.3201 6.77085 24.4354 6.04254 24.4379C5.50895 24.4379 5.00421 24.3728 4.49465 24.284C5.53299 28.284 8.55666 31.1894 12.1572 31.284C9.34022 34 5.8118 35.5976 1.98053 35.5976C1.29311 35.5976 0.658575 35.5681 0 35.4734C3.63418 38.3432 7.94616 40 12.5898 40C27.6649 40 35.914 24.6272 35.914 11.284C35.914 10.8462 35.914 10.4083 35.8899 9.97043C37.4859 8.53256 38.8848 6.7515 40 4.7515Z" fill="#818289"/>
</g>
<defs>
<clipPath id="clip0_21_245">
<rect width="40" height="40" fill="white"/>
</clipPath>
</defs>
</svg>
