<svg width="40" height="40" viewBox="0 0 40 40" fill="none" xmlns="http://www.w3.org/2000/svg">
<path id="Vector" d="M20 11.6867C18.3925 11.6867 16.8817 12.2081 15.7419 13.161C15.1818 13.6279 14.7377 14.1828 14.4351 14.7938C14.1324 15.4048 13.9773 16.0597 13.9785 16.721C13.9785 18.0649 14.6075 19.328 15.7419 20.2809C16.3004 20.7492 16.9641 21.1205 17.6949 21.3735C18.4257 21.6266 19.209 21.7563 20 21.7553C21.6075 21.7553 23.1183 21.2293 24.2581 20.2809C25.3979 19.328 26.0215 18.0649 26.0215 16.721C26.0215 15.377 25.3979 14.1139 24.2581 13.161C23.1183 12.2081 21.6075 11.6867 20 11.6867ZM38.4194 9.98314C37.4072 8.03182 35.9478 6.26506 34.1237 4.78256C32.2935 3.28666 30.1359 2.09937 27.7688 1.28554C25.3065 0.431509 22.6935 0 20 0C17.3065 0 14.6935 0.431509 12.2312 1.28104C9.84946 2.10361 7.71505 3.28127 5.87634 4.77806C4.05335 6.2614 2.59417 8.02796 1.58064 9.97865C0.532258 12.0013 0 14.1499 0 16.3614C0 19.5348 0.908602 22.6947 2.69355 25.7422C4.12903 28.1919 6.13441 30.5787 8.66129 32.8486C12.9785 36.7232 17.5054 39.092 18.7903 39.7258C19.1551 39.9059 19.571 40.0006 19.9946 40C20.414 40 20.828 39.9101 21.1989 39.7258C22.4839 39.092 27.0108 36.7232 31.328 32.8486C33.8548 30.5832 35.8602 28.1919 37.2957 25.7422C39.0914 22.6992 40 19.5438 40 16.3659C40 14.1544 39.4677 12.0058 38.4194 9.98314ZM20 24.632C14.7742 24.632 10.5376 21.09 10.5376 16.721C10.5376 12.3519 14.7742 8.80998 20 8.80998C25.2258 8.80998 29.4624 12.3519 29.4624 16.721C29.4624 21.09 25.2258 24.632 20 24.632Z" fill="#818289"/>
</svg>
